<mxfile host="app.diagrams.net" modified="2023-10-21T18:46:30.499Z" agent="Mozilla/5.0 (Macintosh; Intel Mac OS X 10_15_7) AppleWebKit/537.36 (KHTML, like Gecko) Chrome/118.0.0.0 Safari/537.36" etag="pSIZaf_LT9uFWTOpshFf" version="22.0.6" type="device">
  <diagram name="Page-1" id="DGYiBXfa7VTTvpDUfLxb">
    <mxGraphModel dx="762" dy="576" grid="1" gridSize="10" guides="1" tooltips="1" connect="1" arrows="1" fold="1" page="1" pageScale="1" pageWidth="827" pageHeight="1169" math="0" shadow="0">
      <root>
        <mxCell id="0" />
        <mxCell id="1" parent="0" />
        <mxCell id="DarYPK3zRhNmHaeQnxk5-1" value="" style="rounded=0;whiteSpace=wrap;html=1;" vertex="1" parent="1">
          <mxGeometry x="50" y="130" width="620" height="310" as="geometry" />
        </mxCell>
        <mxCell id="DarYPK3zRhNmHaeQnxk5-2" value="API Gateway" style="rounded=0;whiteSpace=wrap;html=1;" vertex="1" parent="1">
          <mxGeometry x="220" y="150" width="120" height="270" as="geometry" />
        </mxCell>
      </root>
    </mxGraphModel>
  </diagram>
</mxfile>
